# xmcd
#
# Track frame offsets:
#	150
#	11070
#	23357
#	36285
#	48070
#	61150
#	72634
#	82617
#	95219
#	108254
#	115436
#	124866
#	136392
#	148639
#	165106
#
# Disc length: 2342 seconds
#
# Revision: 1
# Processed by: cddbd v1.5.2PL0 Copyright (c) Steve Scherf et al.
# Submitted via: audiograbber 1.80.04
#
DISCID=bf09240f
DTITLE=Samling - Country Legends King Of The Road
DYEAR=2005
DGENRE=Country
TTITLE0=Roger Miller - King Of The Road
TTITLE1=Hank Williams - Last Night I Heard You Crying In Your sleep
TTITLE2=Lynn Anderson - Rose Garden
TTITLE3=Waylon Jennings - Crying
TTITLE4=Loretta Lynn - Let Your Love Flow
TTITLE5=Kenny Rogers and The First Edition - Me And Bobby McGee
TTITLE6=Willie Nelson - Broken Promises
TTITLE7=Patsy Cline - Fingerprints
TTITLE8=Freddy Fender - Silver Wings
TTITLE9=Conway Twitty (aka Harold Jenkins) - Treat Me Mean Treat Me Cruel
TTITLE10=Dolly Parton - Girl Left Alone
TTITLE11=Ed Bruce (aka Edwin Bruce) - Baby That´s Good
TTITLE12=Anne Murray - All The Time
TTITLE13=Jimmy Davis - You Are My Sunshine
TTITLE14=Billie Jo Spears - I´m So Lonesome I Could Cry
EXTD=
EXTT0=
EXTT1=
EXTT2=
EXTT3=
EXTT4=
EXTT5=
EXTT6=
EXTT7=
EXTT8=
EXTT9=
EXTT10=
EXTT11=
EXTT12=
EXTT13=
EXTT14=
PLAYORDER=
